<svg xmlns="http://www.w3.org/2000/svg" viewBox="0 0 48 48" width="48px" height="48px">
  <path fill="#1565C0" d="M45,35c0,2.209-1.791,4-4,4H7c-2.209,0-4-1.791-4-4V13c0-2.209,1.791-4,4-4h34c2.209,0,4,1.791,4,4V35z"/>
  <path fill="#FFF" d="M15.186 19l-2.626 7.832c0 0-.667-3.313-.733-3.729-1.495-3.411-3.701-3.221-3.701-3.221L10.726 30v-.002h3.161L18.258 19H15.186zM17.689 30L20.56 19h2.799l-2.86 11H17.689zM24.233 19l-1.799 9.041-.214-1.046c-.427-1.413-1.582-2.613-3.001-3.295l2.733 6.30h2.807L28.233 19H24.233zM36.559 19h-2.35c-1.084 0-1.335.814-1.335.814l-4.329 10.186h3.063l.587-1.729h3.883l.321 1.729h2.708L36.559 19z"/>
  <path fill="#FFF" d="M34.083,25.946l1.407-4.046L36.222,25.946z"/>
</svg>